<svg width="432" height="256" fill="none" xmlns="http://www.w3.org/2000/svg">
  <g clip-path="url(#prefix__clip0_1344_6300)">
    <g clip-path="url(#prefix__clip1_1344_6300)" filter="url(#prefix__filter0_f_1344_6300)">
      <path fill-rule="evenodd" clip-rule="evenodd"
        d="M406.595 19.89c.586.585 1.694.427 2.475-.354.781-.782.94-1.89.354-2.475-.586-.586-1.694-.428-2.475.353-.781.781-.939 1.89-.354 2.475zM116.011 34.442c1.333-.358 2.067-1.945 1.638-3.545-.429-1.6-1.858-2.608-3.191-2.25-1.334.357-2.067 1.944-1.639 3.544.429 1.6 1.858 2.608 3.192 2.25zM42.043 50c0 1.657-1.12 3-2.5 3s-2.5-1.343-2.5-3 1.12-3 2.5-3 2.5 1.343 2.5 3zm266.018 20c0 1.657-1.119 3-2.5 3s-2.5-1.343-2.5-3 1.119-3 2.5-3 2.5 1.343 2.5 3zm54.525 46.798c-.429 1.6-1.857 2.608-3.191 2.25-1.334-.357-2.067-1.944-1.638-3.544.428-1.601 1.857-2.609 3.191-2.251 1.333.357 2.067 1.944 1.638 3.545zM395.561 165c1.381 0 2.5-1.343 2.5-3s-1.119-3-2.5-3-2.5 1.343-2.5 3 1.119 3 2.5 3zM83.667 55.898c.429 1.6-.305 3.187-1.638 3.545-1.334.357-2.763-.65-3.192-2.251-.428-1.6.305-3.188 1.639-3.545 1.333-.357 2.762.65 3.191 2.25zM62.043 102a2 2 0 11-4 0 2 2 0 014 0zm122-37.7a2 2 0 100-4 2 2 0 000 4zm202 173.61a2 2 0 11-4 0 2 2 0 014 0zM216.418 53.04a2 2 0 10-1.035-3.864 2 2 0 001.035 3.863zm108.625-4.74a2 2 0 11-4 0 2 2 0 014 0zm57.114 53.346a2 2 0 101.034-3.864 2 2 0 00-1.034 3.864zm-345.165 5.966c.572 2.134.386 4.037-.414 4.252-.8.214-1.912-1.342-2.484-3.476-.572-2.134-.386-4.037.414-4.252.8-.214 1.912 1.342 2.484 3.476zm-14.983 127.64c.414-.718-.8-2.195-2.714-3.299-1.913-1.105-3.8-1.419-4.214-.701-.414.717.8 2.194 2.714 3.299 1.913 1.104 3.8 1.418 4.214.701zm30.916-93.217c2.134-.572 4.037-.386 4.252.414.214.8-1.342 1.912-3.476 2.484-2.134.572-4.037.387-4.252-.414-.214-.8 1.342-1.912 3.476-2.484zm275.655-54.92c.801-.214.986-2.117.414-4.251-.572-2.134-1.684-3.69-2.484-3.476-.8.215-.986 2.118-.414 4.252.572 2.134 1.684 3.69 2.484 3.476zm19.481-48.002c-2.209 0-4-.671-4-1.5 0-.828 1.791-1.5 4-1.5s4 .672 4 1.5c0 .829-1.791 1.5-4 1.5zM32.275 85c.414-.717-.025-1.747-.982-2.299-.957-.552-2.068-.418-2.482.3-.414.716.025 1.746.982 2.298s2.068.418 2.482-.299zm123.018-42c.957.552 1.396 1.582.982 2.3-.414.717-1.525.85-2.482.298-.957-.552-1.396-1.581-.982-2.299.414-.717 1.525-.851 2.482-.299zm200.982 177.91c.414-.718-.025-1.747-.982-2.299-.957-.553-2.068-.419-2.482.299-.414.717.025 1.746.982 2.299.957.552 2.068.418 2.482-.299zM183.135 39.907c1.067.286 1.758 1.166 1.544 1.967-.215.8-1.254 1.217-2.321.93-1.067-.285-1.758-1.166-1.543-1.966.214-.8 1.253-1.217 2.32-.931zm201.543 177.577c.215-.8-.476-1.681-1.543-1.966-1.067-.286-2.106.131-2.32.931-.215.8.477 1.68 1.543 1.966 1.067.286 2.106-.131 2.32-.931zM294.293 29c.957.552 1.396 1.582.982 2.3-.414.717-1.525.85-2.482.298-.957-.552-1.396-1.581-.982-2.299.414-.717 1.525-.851 2.482-.299z"
        fill="url(#prefix__paint0_radial_1344_6300)" />
    </g>
  </g>
  <defs>
    <clipPath id="prefix__clip0_1344_6300">
      <path fill="#fff" d="M0 0h432v256H0z" />
    </clipPath>
    <clipPath id="prefix__clip1_1344_6300">
      <path fill="#fff" transform="translate(15 15)" d="M0 0h402v293H0z" />
    </clipPath>
    <radialGradient id="prefix__paint0_radial_1344_6300" cx="0" cy="0" r="1" gradientUnits="userSpaceOnUse"
      gradientTransform="matrix(313.5 0 0 139.676 212.061 176)">
      <stop stop-color="#fff" stop-opacity="0" />
      <stop offset=".5" stop-color="#fff" stop-opacity=".2" />
      <stop offset="1" stop-color="#fff" />
    </radialGradient>
    <filter id="prefix__filter0_f_1344_6300" x="11" y="11" width="410" height="301" filterUnits="userSpaceOnUse"
      color-interpolation-filters="sRGB">
      <feFlood flood-opacity="0" result="BackgroundImageFix" />
      <feBlend in="SourceGraphic" in2="BackgroundImageFix" result="shape" />
      <feGaussianBlur stdDeviation="2" result="effect1_foregroundBlur_1344_6300" />
    </filter>
  </defs>
</svg>