<svg width="32" height="32" viewBox="0 0 32 32" fill="none" xmlns="http://www.w3.org/2000/svg">
  <style>
    @media (prefers-color-scheme: dark) {
      .main {
        fill: white;
      }
    }
  </style>
  <path
    d="M8.32309 19.5407V21.4206H1.98749V19.5407H3.97728V15.7442H1.98749V14.3282C2.53275 14.2956 3.14311 14.1532 3.81859 13.9009C4.49406 13.6405 5.08408 13.3434 5.58865 13.0098H6.40654V19.5407H8.32309Z"
    class="main" fill="#111312" />
  <path
    d="M16.4653 19.5407V21.4206H10.1297V19.5407H12.1195V15.7442H10.1297V14.3282C10.6749 14.2956 11.2853 14.1532 11.9608 13.9009C12.6362 13.6405 13.2263 13.3434 13.7308 13.0098H14.5487V19.5407H16.4653Z"
    class="main" fill="#111312" />
  <path
    d="M24.6075 19.5407V21.4206H18.2719V19.5407H20.2617V15.7442H18.2719V14.3282C18.8171 14.2956 19.4275 14.1532 20.103 13.9009C20.7784 13.6405 21.3685 13.3434 21.873 13.0098H22.6909V19.5407H24.6075Z"
    class="main" fill="#111312" />
  <path
    d="M25.9018 7L25.1099 7.90473C24.9675 7.89327 24.8236 7.88743 24.6783 7.88743C24.3194 7.88743 23.9689 7.92305 23.63 7.99094L22.6582 7.12515L21.2277 7.8245L21.312 9.09165C20.8777 9.44848 20.501 9.87294 20.1981 10.3489L18.8984 10.4239L18.3815 11.9299L18.7643 12.265H21.08C21.4925 10.6626 22.9471 9.4786 24.6783 9.4786C26.7301 9.4786 28.3935 11.142 28.3935 13.1939C28.3935 15.0193 27.077 16.5373 25.3417 16.8501V18.4592C25.4938 18.4403 25.6438 18.4149 25.7916 18.3833L26.8517 19.3277L28.2821 18.6284L28.1855 17.1761C28.5219 16.8796 28.8203 16.5413 29.0728 16.1691L30.4922 16.0872L31.0092 14.5812L29.964 13.6663C29.9777 13.5107 29.9847 13.3531 29.9847 13.1939C29.9847 12.8359 29.9493 12.4862 29.8817 12.1481L30.737 11.188L30.0377 9.75751L28.791 9.84043C28.4201 9.38607 27.9753 8.99432 27.4751 8.68348L27.4078 7.51696L25.9018 7Z"
    fill="#af2024" />
</svg>
